<svg width="31" height="28" viewBox="0 0 31 28" fill="none" xmlns="http://www.w3.org/2000/svg">
<path d="M30.3461 14.0721C30.2976 12.8679 29.7888 11.7284 28.9248 10.8883C28.1102 10.0492 27.1462 9.36955 26.0822 8.88428C26.0822 8.88428 26.0111 8.88428 25.9543 8.799L6.5534 0.626482C5.98841 0.379205 5.37927 0.248674 4.76256 0.242729C4.14439 0.233305 3.53053 0.346929 2.9567 0.576987C2.38286 0.807046 1.86052 1.14894 1.42007 1.58278C0.979615 2.01662 0.629854 2.53373 0.391141 3.10402C0.152427 3.67431 0.0295302 4.28639 0.0296021 4.90462C0.0540199 5.73264 0.252575 6.54623 0.612338 7.29242L3.24176 14.0721L0.612338 20.8659C0.256119 21.6134 0.0577487 22.4262 0.0296021 23.2537C0.0295563 23.8726 0.152365 24.4853 0.390908 25.0564C0.629452 25.6275 0.978984 26.1455 1.41924 26.5805C1.8595 27.0154 2.38172 27.3587 2.95563 27.5903C3.52954 27.8219 4.14371 27.9373 4.76256 27.9298C5.38885 27.9277 6.00805 27.7971 6.58183 27.546L25.9258 19.3735C25.9928 19.3392 26.0549 19.2962 26.1106 19.2456C27.1861 18.7177 28.151 17.9893 28.9532 17.0994C29.3455 16.6774 29.6714 16.1981 29.9197 15.6781C30.177 15.1802 30.3225 14.6321 30.3461 14.0721ZM4.76256 3.08534C5.07517 3.08651 5.38269 3.16461 5.65798 3.31275C5.72099 3.34488 5.78786 3.36876 5.85696 3.38382L24.0923 11.1157C25.0303 11.4698 25.8969 11.9898 26.6507 12.6507H5.74326L3.01435 5.62949C2.93291 5.40125 2.88969 5.16114 2.88643 4.91883C2.8844 4.67387 2.93186 4.43102 3.02596 4.20484C3.12007 3.97867 3.25889 3.77383 3.43409 3.60261C3.60929 3.43139 3.81727 3.29732 4.04555 3.20843C4.27383 3.11955 4.5177 3.07768 4.76256 3.08534ZM2.87222 23.2537C2.88033 23.0304 2.9235 22.8098 3.00014 22.5999L5.74326 15.4934H26.537C25.8247 16.1491 24.9954 16.6651 24.0923 17.0142L5.7859 24.7745H5.58692C5.31537 24.9335 5.00618 25.017 4.69149 25.0161C4.21975 25.0128 3.76743 24.8278 3.4286 24.4996C3.08976 24.1713 2.89049 23.7251 2.87222 23.2537Z" fill="#FAFF00"/>
</svg>
